<?xml version="1.0" encoding="UTF-8" standalone="no"?>
<!-- Created with Inkscape (http://www.inkscape.org/) -->

<svg
   xmlns:dc="http://purl.org/dc/elements/1.1/"
   xmlns:cc="http://creativecommons.org/ns#"
   xmlns:rdf="http://www.w3.org/1999/02/22-rdf-syntax-ns#"
   xmlns:svg="http://www.w3.org/2000/svg"
   xmlns="http://www.w3.org/2000/svg"
   xmlns:sodipodi="http://sodipodi.sourceforge.net/DTD/sodipodi-0.dtd"
   xmlns:inkscape="http://www.inkscape.org/namespaces/inkscape"
   width="210mm"
   height="297mm"
   viewBox="0 0 210 297"
   version="1.1"
   id="svg8"
   inkscape:version="0.92.4 (5da689c313, 2019-01-14)"
   sodipodi:docname="BonsouereAirlines.svg">
  <defs
     id="defs2">
    <inkscape:perspective
       sodipodi:type="inkscape:persp3d"
       inkscape:vp_x="0 : 148.5 : 1"
       inkscape:vp_y="0 : 1000 : 0"
       inkscape:vp_z="210 : 148.5 : 1"
       inkscape:persp3d-origin="105 : 99 : 1"
       id="perspective3755" />
  </defs>
  <sodipodi:namedview
     id="base"
     pagecolor="#ffffff"
     bordercolor="#666666"
     borderopacity="1.0"
     inkscape:pageopacity="0.0"
     inkscape:pageshadow="2"
     inkscape:zoom="0.7"
     inkscape:cx="236.74737"
     inkscape:cy="539.5236"
     inkscape:document-units="mm"
     inkscape:current-layer="layer1"
     showgrid="false"
     inkscape:window-width="1920"
     inkscape:window-height="1001"
     inkscape:window-x="-9"
     inkscape:window-y="-9"
     inkscape:window-maximized="1" />
  <metadata
     id="metadata5">
    <rdf:RDF>
      <cc:Work
         rdf:about="">
        <dc:format>image/svg+xml</dc:format>
        <dc:type
           rdf:resource="http://purl.org/dc/dcmitype/StillImage" />
        <dc:title></dc:title>
      </cc:Work>
    </rdf:RDF>
  </metadata>
  <g
     inkscape:label="Layer 1"
     inkscape:groupmode="layer"
     id="layer1">
    <g
       sodipodi:type="inkscape:box3d"
       id="g3757"
       inkscape:perspectiveID="#perspective3755"
       inkscape:corner0="2.6552011 : 0.099615087 : 0 : 1"
       inkscape:corner7="-0.14524529 : -0.035994705 : 6.59703 : 1">
      <path
         sodipodi:type="inkscape:box3dside"
         id="path3759"
         style="fill:#353564;fill-rule:evenodd;stroke:none;stroke-linejoin:round"
         inkscape:box3dsidetype="6"
         d="m 28.72619,134.78938 v 37.1005 l 116.64474,-15.05074 v -13.22735 z"
         points="28.72619,171.88988 145.37093,156.83914 145.37093,143.61179 28.72619,134.78938 " />
      <path
         sodipodi:type="inkscape:box3dside"
         id="path3767"
         style="fill:#afafde;fill-rule:evenodd;stroke:none;stroke-linejoin:round"
         inkscape:box3dsidetype="13"
         d="m 28.72619,171.88988 94.11607,76.63262 77.16034,-88.54945 -54.63167,-3.13391 z"
         points="122.84226,248.5225 200.0026,159.97305 145.37093,156.83914 28.72619,171.88988 " />
      <path
         sodipodi:type="inkscape:box3dside"
         id="path3769"
         style="fill:#e9e9ff;fill-rule:evenodd;stroke:none;stroke-linejoin:round"
         inkscape:box3dsidetype="11"
         d="m 145.37093,143.61179 54.63167,-1.83703 v 18.19829 l -54.63167,-3.13391 z"
         points="200.0026,141.77476 200.0026,159.97305 145.37093,156.83914 145.37093,143.61179 " />
      <path
         sodipodi:type="inkscape:box3dside"
         id="path3761"
         style="fill:#4d4d9f;fill-rule:evenodd;stroke:none;stroke-linejoin:round"
         inkscape:box3dsidetype="5"
         d="m 28.72619,134.78938 94.11607,-44.920332 77.16034,51.905712 -54.63167,1.83703 z"
         points="122.84226,89.869048 200.0026,141.77476 145.37093,143.61179 28.72619,134.78938 " />
      <path
         sodipodi:type="inkscape:box3dside"
         id="path3765"
         style="fill:#d7d7ff;fill-rule:evenodd;stroke:none;stroke-linejoin:round"
         inkscape:box3dsidetype="14"
         d="M 122.84226,89.869048 V 248.5225 l 77.16034,-88.54945 v -18.19829 z"
         points="122.84226,248.5225 200.0026,159.97305 200.0026,141.77476 122.84226,89.869048 " />
      <path
         sodipodi:type="inkscape:box3dside"
         id="path3763"
         style="fill:#8686bf;fill-rule:evenodd;stroke:none;stroke-linejoin:round"
         inkscape:box3dsidetype="3"
         d="M 28.72619,134.78938 122.84226,89.869048 V 248.5225 L 28.72619,171.88988 Z"
         points="122.84226,89.869048 122.84226,248.5225 28.72619,171.88988 28.72619,134.78938 " />
    </g>
    <g
       sodipodi:type="inkscape:box3d"
       id="g3771"
       inkscape:perspectiveID="#perspective3755"
       inkscape:corner0="-0.14524529 : 0.099615087 : 0 : 1"
       inkscape:corner7="-0.1682776 : 0.064626955 : 0.25 : 1">
      <path
         sodipodi:type="inkscape:box3dside"
         id="path3773"
         style="fill:#353564;fill-rule:evenodd;stroke:none;stroke-linejoin:round"
         inkscape:box3dsidetype="6"
         d="m 122.84226,89.869048 v 40.933532 l 19.72333,4.00483 v -31.67049 z"
         points="122.84226,130.80258 142.56559,134.80741 142.56559,103.13692 122.84226,89.869048 " />
      <path
         sodipodi:type="inkscape:box3dside"
         id="path3783"
         style="fill:#e9e9ff;fill-rule:evenodd;stroke:none;stroke-linejoin:round"
         inkscape:box3dsidetype="11"
         d="m 142.56559,103.13692 3.03554,-0.96589 v 32.34484 l -3.03554,0.29154 z"
         points="145.60113,102.17103 145.60113,134.51587 142.56559,134.80741 142.56559,103.13692 " />
      <path
         sodipodi:type="inkscape:box3dside"
         id="path3775"
         style="fill:#4d4d9f;fill-rule:evenodd;stroke:none;stroke-linejoin:round"
         inkscape:box3dsidetype="5"
         d="m 122.84226,89.869048 3.40179,-1.623626 19.35708,13.925608 -3.03554,0.96589 z"
         points="126.24405,88.245422 145.60113,102.17103 142.56559,103.13692 122.84226,89.869048 " />
      <path
         sodipodi:type="inkscape:box3dside"
         id="path3781"
         style="fill:#afafde;fill-rule:evenodd;stroke:none;stroke-linejoin:round"
         inkscape:box3dsidetype="13"
         d="m 122.84226,130.80258 3.40179,-0.49008 19.35708,4.20337 -3.03554,0.29154 z"
         points="126.24405,130.3125 145.60113,134.51587 142.56559,134.80741 122.84226,130.80258 " />
      <path
         sodipodi:type="inkscape:box3dside"
         id="path3779"
         style="fill:#d7d7ff;fill-rule:evenodd;stroke:none;stroke-linejoin:round"
         inkscape:box3dsidetype="14"
         d="M 126.24405,88.245422 V 130.3125 l 19.35708,4.20337 v -32.34484 z"
         points="126.24405,130.3125 145.60113,134.51587 145.60113,102.17103 126.24405,88.245422 " />
      <path
         sodipodi:type="inkscape:box3dside"
         id="path3777"
         style="fill:#8686bf;fill-rule:evenodd;stroke:none;stroke-linejoin:round"
         inkscape:box3dsidetype="3"
         d="m 122.84226,89.869048 3.40179,-1.623626 V 130.3125 l -3.40179,0.49008 z"
         points="126.24405,88.245422 126.24405,130.3125 122.84226,130.80258 122.84226,89.869048 " />
    </g>
    <text
       xml:space="preserve"
       style="font-style:normal;font-weight:normal;font-size:10.58333302px;line-height:1.25;font-family:sans-serif;letter-spacing:0px;word-spacing:0px;fill:#000000;fill-opacity:1;stroke:none;stroke-width:0.26458332"
       x="35.907742"
       y="137.49405"
       id="text3803"><tspan
         sodipodi:role="line"
         id="tspan3801"
         x="35.907742"
         y="137.49405"
         style="stroke-width:0.26458332">BONSOUERE</tspan></text>
    <text
       xml:space="preserve"
       style="font-style:normal;font-weight:normal;font-size:10.58333302px;line-height:1.25;font-family:sans-serif;letter-spacing:0px;word-spacing:0px;fill:#000000;fill-opacity:1;stroke:none;stroke-width:0.26458332"
       x="92.604164"
       y="179.82738"
       id="text3807"><tspan
         sodipodi:role="line"
         id="tspan3805"
         x="92.604164"
         y="179.82738"
         style="stroke-width:0.26458332">AIRLINES</tspan></text>
    <g
       id="g3913"
       transform="matrix(0.04606752,0,0,0.10868413,144.20754,131.3363)">
      <g
         id="g3856">
	<g
   id="g3854">
		<path
   id="path3852"
   d="m 509.5,305.471 -59.349,-59.349 c 7.335,-4.483 12.075,-10.717 13.159,-17.933 1.23,-8.164 -2.212,-16.063 -9.547,-22.382 l 23.646,-70.929 c 0.871,-2.604 0.427,-5.465 -1.178,-7.694 -1.597,-2.229 -4.184,-3.544 -6.926,-3.544 h -25.618 c -2.946,0 -5.687,1.52 -7.241,4.013 l -32.928,52.688 -29.572,-44.362 c -1.588,-2.374 -4.261,-3.8 -7.113,-3.8 h -25.618 c -2.681,0 -5.201,1.255 -6.814,3.399 -1.614,2.143 -2.135,4.91 -1.392,7.489 l 13.962,48.888 H 235.478 l 45.054,-90.117 c 1.324,-2.647 1.178,-5.79 -0.376,-8.309 -1.546,-2.511 -4.295,-4.048 -7.259,-4.048 H 238.74 c -2.263,0 -4.44,0.897 -6.037,2.502 l -100.049,100.05 c -40.067,1.059 -62.406,7.66 -80.92,21.605 -2.237,1.682 -2.143,5.107 0.094,6.78 l 17.83,13.381 c 0.743,0.555 1.64,0.854 2.562,0.854 h 12.81 c 4.714,0 8.539,3.826 8.539,8.539 0,4.714 -3.826,8.539 -8.539,8.539 H 67.951 c -1.853,0 -3.646,-0.598 -5.132,-1.708 L 36.782,228.58 c -1.699,-1.401 -4.176,-1.281 -5.73,0.273 l -5.798,5.798 c -24.936,14.459 -27.378,35.885 -24.099,49.54 3.877,16.08 19.53,26.541 41.177,27.318 h 53.807 c -1.597,3.894 -2.57,8.206 -2.57,12.809 0,16.481 11.494,29.888 25.618,29.888 32.484,0 66.83,-6.703 79.869,-21.067 l 137.554,88.033 c 1.375,0.88 2.972,1.349 4.603,1.349 h 59.776 c 3.587,0 6.789,-2.246 8.019,-5.61 1.23,-3.365 0.222,-7.148 -2.519,-9.462 L 278.363,299.553 c 55.284,-9.274 97.307,-21.699 120.68,-29.589 l 82.483,57.103 c 1.452,1.008 3.151,1.52 4.859,1.52 1.307,0 2.613,-0.299 3.817,-0.897 l 17.079,-8.539 c 2.459,-1.23 4.167,-3.561 4.611,-6.268 0.443,-2.715 -0.445,-5.474 -2.392,-7.412 z M 127.727,251.732 h -8.539 c -4.714,0 -8.539,-3.826 -8.539,-8.539 0,-4.714 3.826,-8.539 8.539,-8.539 h 8.539 c 4.714,0 8.539,3.826 8.539,8.539 0,4.713 -3.825,8.539 -8.539,8.539 z m 42.697,0 h -8.539 c -4.714,0 -8.539,-3.826 -8.539,-8.539 0,-4.714 3.826,-8.539 8.539,-8.539 h 8.539 c 4.714,0 8.539,3.826 8.539,8.539 0.001,4.713 -3.825,8.539 -8.539,8.539 z m 42.697,0 h -8.539 c -4.714,0 -8.539,-3.826 -8.539,-8.539 0,-4.714 3.826,-8.539 8.539,-8.539 h 8.539 c 4.714,0 8.539,3.826 8.539,8.539 0.001,4.713 -3.825,8.539 -8.539,8.539 z m 42.698,0 h -8.539 c -4.714,0 -8.539,-3.826 -8.539,-8.539 0,-4.714 3.826,-8.539 8.539,-8.539 h 8.539 c 4.714,0 8.54,3.826 8.54,8.539 -10e-4,4.713 -3.826,8.539 -8.54,8.539 z m 42.697,0 h -8.539 c -4.714,0 -8.539,-3.826 -8.539,-8.539 0,-4.714 3.826,-8.539 8.539,-8.539 h 8.539 c 4.714,0 8.539,3.826 8.539,8.539 0,4.713 -3.825,8.539 -8.539,8.539 z m 42.697,0 h -8.539 c -4.714,0 -8.539,-3.826 -8.539,-8.539 0,-4.714 3.826,-8.539 8.539,-8.539 h 8.539 c 4.714,0 8.539,3.826 8.539,8.539 10e-4,4.713 -3.825,8.539 -8.539,8.539 z"
   inkscape:connector-curvature="0" />

	</g>

</g>
      <g
         id="g3858">
</g>
      <g
         id="g3860">
</g>
      <g
         id="g3862">
</g>
      <g
         id="g3864">
</g>
      <g
         id="g3866">
</g>
      <g
         id="g3868">
</g>
      <g
         id="g3870">
</g>
      <g
         id="g3872">
</g>
      <g
         id="g3874">
</g>
      <g
         id="g3876">
</g>
      <g
         id="g3878">
</g>
      <g
         id="g3880">
</g>
      <g
         id="g3882">
</g>
      <g
         id="g3884">
</g>
      <g
         id="g3886">
</g>
    </g>
  </g>
</svg>
